<?xml version="1.0" encoding="UTF-8"?>
<svg xmlns="http://www.w3.org/2000/svg" width="512" height="512" viewBox="0 0 512 512"><g id="Line"><g><path d="M478,40H463.715A28.043,28.043,0,0,0,436,16h-8a28.043,28.043,0,0,0-27.715,24h-24.57A28.043,28.043,0,0,0,348,16h-8a28.043,28.043,0,0,0-27.715,24h-24.57A28.043,28.043,0,0,0,260,16h-8a28.043,28.043,0,0,0-27.715,24h-24.57A28.043,28.043,0,0,0,172,16h-8a28.043,28.043,0,0,0-27.715,24h-24.57A28.043,28.043,0,0,0,84,16H76A28.043,28.043,0,0,0,48.285,40H34A18.021,18.021,0,0,0,16,58V168H32V128H480V288h16V58A18.021,18.021,0,0,0,478,40Zm-62,4a12.013,12.013,0,0,1,12-12h8a12.013,12.013,0,0,1,12,12V68a12.013,12.013,0,0,1-12,12h-8a12.013,12.013,0,0,1-12-12Zm-88,0a12.013,12.013,0,0,1,12-12h8a12.013,12.013,0,0,1,12,12V68a12.013,12.013,0,0,1-12,12h-8a12.013,12.013,0,0,1-12-12Zm-88,0a12.013,12.013,0,0,1,12-12h8a12.013,12.013,0,0,1,12,12V68a12.013,12.013,0,0,1-12,12h-8a12.013,12.013,0,0,1-12-12Zm-88,0a12.013,12.013,0,0,1,12-12h8a12.013,12.013,0,0,1,12,12V68a12.013,12.013,0,0,1-12,12h-8a12.013,12.013,0,0,1-12-12ZM64,44A12.013,12.013,0,0,1,76,32h8A12.013,12.013,0,0,1,96,44V68A12.013,12.013,0,0,1,84,80H76A12.013,12.013,0,0,1,64,68ZM32,112V58a2,2,0,0,1,2-2H48V68A28.032,28.032,0,0,0,76,96h8a28.032,28.032,0,0,0,28-28V56h24V68a28.032,28.032,0,0,0,28,28h8a28.032,28.032,0,0,0,28-28V56h24V68a28.032,28.032,0,0,0,28,28h8a28.032,28.032,0,0,0,28-28V56h24V68a28.032,28.032,0,0,0,28,28h8a28.032,28.032,0,0,0,28-28V56h24V68a28.032,28.032,0,0,0,28,28h8a28.032,28.032,0,0,0,28-28V56h14a2,2,0,0,1,2,2v54Z"/><path d="M32,478V184H16V478a18.021,18.021,0,0,0,18,18H240V480H34A2,2,0,0,1,32,478Z"/><path d="M480,478a2,2,0,0,1-2,2H256v16H478a18.021,18.021,0,0,0,18-18V304H480Z"/><path d="M255.951,425.814A126.847,126.847,0,0,0,328,448a128,128,0,0,0,0-256c-.322,0-.645,0-.967,0a40.776,40.776,0,0,0-10.679-19.982,39.448,39.448,0,0,0-56.708,0L256,175.76l-3.646-3.738a39.448,39.448,0,0,0-56.708,0A40.776,40.776,0,0,0,184.967,192c-.322,0-.645,0-.967,0a128,128,0,1,0,71.951,233.814ZM440,320A112.127,112.127,0,0,1,328,432a110.976,110.976,0,0,1-58.737-16.61,129.128,129.128,0,0,0,11.585-11.785A95.994,95.994,0,1,0,328,224q-3.657,0-7.277.272A41.049,41.049,0,0,0,327.344,208q.327,0,.656,0A112.127,112.127,0,0,1,440,320ZM301.949,244.353a80.008,80.008,0,1,1-11.31,146.374,127.941,127.941,0,0,0,2.612-137.457ZM207.1,183.194a23.446,23.446,0,0,1,33.8,0l9.373,9.608a8,8,0,0,0,11.454,0l9.373-9.609a23.446,23.446,0,0,1,33.8,0,25.376,25.376,0,0,1,0,35.219L293.014,230.6l-.434.171.077.194L256,268.543l-48.9-50.129A25.378,25.378,0,0,1,207.1,183.194Zm27.532,198.7A110.74,110.74,0,0,1,216,320H200a126.564,126.564,0,0,0,21.308,70.756,79.989,79.989,0,1,1-11.257-146.4l8.7,8.92a128.117,128.117,0,0,0-17.625,49.67l15.859,2.114a112.036,112.036,0,0,1,13.348-39.91l11.75,12.045a95.883,95.883,0,0,0,4.131,93.045A80.744,80.744,0,0,1,234.632,381.9ZM256,354.861A79.952,79.952,0,0,1,254.73,287.9a7.951,7.951,0,0,0,2.539,0A79.928,79.928,0,0,1,256,354.861ZM72,320A112.127,112.127,0,0,1,184,208l.656,0a41.047,41.047,0,0,0,6.621,16.27Q187.659,224,184,224a96.032,96.032,0,1,0,85.915,53.192l11.756-12.051A112.01,112.01,0,1,1,72,320Z"/></g></g></svg>
