<?xml version="1.0" encoding="iso-8859-1"?>
<!-- Generator: Adobe Illustrator 19.0.0, SVG Export Plug-In . SVG Version: 6.00 Build 0)  -->
<svg version="1.1" id="Capa_1" xmlns="http://www.w3.org/2000/svg" xmlns:xlink="http://www.w3.org/1999/xlink" x="0px" y="0px"
	 viewBox="0 0 512 512" style="enable-background:new 0 0 512 512;" xml:space="preserve">
<path style="fill:#FFFFFF;" d="M490.667,227.2c0,164.267-209.067,263.467-209.067,263.467S72.533,391.467,72.533,227.2
	c0-60.8,49.067-109.867,109.867-109.867c43.733,0,81.067,24.533,99.2,61.867c18.133-36.267,55.467-61.867,99.2-61.867
	C440.533,117.333,490.667,166.4,490.667,227.2z"/>
<path style="fill:#FFD15C;" d="M281.6,512c-3.2,0-6.4-1.067-9.6-2.133C263.467,505.6,51.2,403.2,51.2,227.2
	C51.2,154.667,109.867,96,182.4,96c38.4,0,74.667,16,99.2,44.8C306.133,112,341.333,96,379.733,96C453.333,96,512,154.667,512,227.2
	c0,176-212.267,278.4-220.8,282.667C288,510.933,284.8,512,281.6,512z M182.4,139.733c-49.067,0-88.533,39.467-88.533,88.533
	c0,130.133,148.267,217.6,186.667,238.933c38.4-21.333,186.667-108.8,186.667-238.933c0-49.067-39.467-88.533-88.533-88.533
	c-34.133,0-64,19.2-78.933,49.067c-3.2,7.467-11.733,11.733-19.2,11.733l0,0c-8.533,0-16-4.267-19.2-11.733
	C246.4,157.867,216.533,139.733,182.4,139.733z"/>
<g>
	<path style="fill:#415A6B;" d="M220.8,225.067v12.8h-29.867v13.867h27.733v12.8h-27.733v24.533h-13.867v-62.933H220.8V225.067z"/>
	<path style="fill:#415A6B;" d="M278.4,264.533c0,7.467-2.133,12.8-7.467,18.133c-5.333,5.333-10.667,7.467-18.133,7.467
		s-13.867-2.133-18.133-7.467c-5.333-5.333-7.467-10.667-7.467-18.133s2.133-12.8,7.467-18.133
		c5.333-5.333,10.667-7.467,18.133-7.467s13.867,2.133,18.133,7.467C276.267,251.733,278.4,257.067,278.4,264.533z M241.067,264.533
		c0,4.267,1.067,7.467,3.2,9.6c2.133,2.133,5.333,4.267,8.533,4.267c3.2,0,6.4-1.067,8.533-4.267c2.133-2.133,3.2-5.333,3.2-9.6
		s-1.067-7.467-3.2-9.6c-2.133-2.133-5.333-4.267-8.533-4.267c-3.2,0-6.4,1.067-8.533,4.267
		C242.133,257.067,241.067,260.267,241.067,264.533z"/>
	<path style="fill:#415A6B;" d="M314.667,251.733c-4.267,0-7.467,1.067-8.533,4.267c-2.133,3.2-3.2,6.4-3.2,11.733v21.333h-13.867
		V240h13.867v6.4c2.133-2.133,4.267-3.2,6.4-5.333c2.133-1.067,5.333-2.133,8.533-2.133v12.8H314.667z"/>
	<path style="fill:#415A6B;" d="M245.333,371.2h-13.867v-24.533l-22.4-38.4H224l13.867,23.467l13.867-23.467h14.933L245.333,345.6
		V371.2z"/>
	<path style="fill:#415A6B;" d="M315.733,346.667c0,7.467-2.133,12.8-7.467,18.133c-5.333,5.333-10.667,7.467-18.133,7.467
		S276.267,370.133,272,364.8c-5.333-5.333-7.467-10.667-7.467-18.133s2.133-12.8,7.467-18.133
		c5.333-5.333,10.667-7.467,18.133-7.467s13.867,2.133,18.133,7.467C313.6,332.8,315.733,339.2,315.733,346.667z M278.4,346.667
		c0,4.267,1.067,7.467,3.2,9.6s5.333,4.267,8.533,4.267s6.4-1.067,8.533-4.267c2.133-2.133,3.2-5.333,3.2-9.6
		c0-4.267-1.067-7.467-3.2-9.6s-5.333-4.267-8.533-4.267s-6.4,1.067-8.533,4.267C279.467,339.2,278.4,342.4,278.4,346.667z"/>
	<path style="fill:#415A6B;" d="M357.333,347.733v-26.667H371.2v49.067h-13.867v-6.4c-3.2,4.267-7.467,7.467-12.8,7.467
		c-5.333,0-9.6-2.133-13.867-5.333c-3.2-3.2-5.333-8.533-5.333-14.933v-29.867H339.2v26.667c0,7.467,3.2,11.733,8.533,11.733
		c3.2,0,5.333-1.067,7.467-3.2C356.267,355.2,357.333,352,357.333,347.733z"/>
</g>
<path style="fill:#F05540;" d="M247.467,138.667c0,3.2,1.067,5.333,1.067,8.533c4.267,24.533,10.667,40.533-2.133,56.533
	c-36.267-2.133-43.733-43.733-81.067-42.667c-7.467,0-17.067,7.467-23.467,9.6c-19.2,8.533-36.267,13.867-48,34.133
	c-12.8,23.467-1.067,57.6-10.667,81.067C52.267,270.933,39.467,208,35.2,163.2l-13.867,29.867L0,178.133
	c5.333,54.4,23.467,131.2,72.533,122.667c0,1.067,33.067-7.467,42.667-21.333c23.467-34.133-6.4-74.667,24.533-102.4
	c12.8,3.2,19.2,14.933,30.933,24.533c21.333,18.133,33.067,22.4,61.867,14.933c11.733-3.2,23.467-8.533,35.2-13.867
	c9.6-4.267,17.067-10.667,21.333-21.333c5.333-12.8,1.067-26.667-3.2-40.533L247.467,138.667z"/>
<g>
	<path style="fill:#F3705A;" d="M247.467,138.667c0,3.2,1.067,5.333,1.067,8.533c4.267,24.533,10.667,40.533-2.133,56.533
		c-36.267-2.133-43.733-43.733-81.067-42.667c-7.467,0-17.067,7.467-23.467,9.6c-19.2,8.533-36.267,13.867-48,34.133
		c-12.8,23.467-1.067,57.6-10.667,81.067c0,0,11.733,4.267,26.667-1.067c2.133-2.133,4.267-4.267,6.4-6.4
		c23.467-34.133-6.4-74.667,24.533-102.4c12.8,3.2,19.2,14.933,30.933,24.533c21.333,18.133,33.067,22.4,61.867,14.933
		c11.733-3.2,23.467-8.533,35.2-13.867c9.6-4.267,17.067-10.667,21.333-21.333c5.333-12.8,1.067-26.667-3.2-40.533L247.467,138.667z
		"/>
	<path style="fill:#F3705A;" d="M247.467,138.667c0,3.2,1.067,5.333,1.067,8.533c4.267,24.533,10.667,40.533-2.133,56.533
		c-36.267-2.133-43.733-43.733-81.067-42.667c-1.067,0-2.133,0-3.2,1.067c-1.067,0-2.133,0-2.133,1.067l0,0
		c-8.533,3.2-13.867,8.533-19.2,13.867c12.8,3.2,19.2,14.933,30.933,24.533c21.333,18.133,33.067,22.4,61.867,14.933
		c11.733-3.2,23.467-8.533,35.2-13.867c9.6-4.267,17.067-10.667,21.333-21.333c5.333-12.8,1.067-26.667-3.2-40.533L247.467,138.667z
		"/>
</g>
<g>
	<path style="fill:#F05540;" d="M246.4,203.733c0,0-8.533,7.467-21.333,13.867l0,0c-23.467,5.333-34.133,0-54.4-17.067
		c-11.733-9.6-18.133-21.333-30.933-24.533c4.267-4.267,10.667-10.667,19.2-13.867l0,0c1.067,0,1.067-1.067,2.133-1.067
		s2.133,0,3.2-1.067C201.6,160,209.067,201.6,246.4,203.733z"/>
	<path style="fill:#F05540;" d="M435.2,176c0-1.067-21.333-24.533-37.333-25.6c-39.467-4.267-59.733,39.467-97.067,26.667
		c-3.2-11.733,4.267-22.4,7.467-37.333c1.067-3.2,1.067-5.333,1.067-7.467l-38.4,7.467c0,7.467,1.067,14.933,5.333,22.4
		c3.2,5.333,13.867,10.667,19.2,14.933c16,12.8,28.8,23.467,50.133,23.467c25.6,0,49.067-25.6,72.533-28.8
		c1.067,32-46.933,72.533-82.133,97.067l30.933-3.2l-3.2,24.533C408.533,263.467,465.067,213.333,435.2,176z"/>
</g>
<g>
	<path style="fill:#F3705A;" d="M405.333,153.6c-3.2-1.067-5.333-2.133-7.467-2.133c-39.467-4.267-59.733,39.467-97.067,26.667
		c-3.2-11.733,4.267-22.4,7.467-37.333c1.067-3.2,1.067-5.333,1.067-7.467l-38.4,7.467c0,7.467,1.067,14.933,5.333,22.4
		c3.2,5.333,13.867,10.667,19.2,14.933c16,12.8,28.8,23.467,50.133,23.467c25.6,0,49.067-25.6,72.533-28.8
		C418.133,174.933,417.067,163.2,405.333,153.6z"/>
	<path style="fill:#F3705A;" d="M269.867,140.8c0,7.467,1.067,14.933,5.333,22.4c1.067,1.067,1.067,2.133,2.133,3.2
		c1.067,1.067,1.067,1.067,2.133,2.133l0,0c6.4,5.333,13.867,7.467,20.267,9.6c-3.2-11.733,4.267-22.4,7.467-37.333
		c1.067-3.2,1.067-5.333,1.067-7.467L269.867,140.8z"/>
</g>
<g>
	<path style="fill:#F05540;" d="M269.867,140.8c0,7.467,1.067,14.933,5.333,22.4c1.067,1.067,1.067,2.133,2.133,3.2
		c1.067,1.067,1.067,1.067,2.133,2.133l0,0c6.4,5.333,13.867,7.467,20.267,9.6c-3.2-11.733,4.267-22.4,7.467-37.333
		c1.067-3.2,1.067-5.333,1.067-7.467L269.867,140.8z"/>
	<rect x="259.2" style="fill:#F05540;" width="44.8" height="140.8"/>
</g>
<path style="fill:#F3705A;" d="M268.8,133.333c0,0,67.2-50.133,94.933-50.133c27.733,0,12.8,22.4,12.8,50.133
	s14.933,50.133-12.8,50.133C337.067,183.467,268.8,133.333,268.8,133.333z"/>
<path style="fill:#F05540;" d="M363.733,183.467c11.733,0,16-4.267,16-10.667c1.067-10.667-5.333-21.333-16-25.6
	c-25.6-10.667-59.733-13.867-96-13.867l0,0C268.8,133.333,337.067,183.467,363.733,183.467z"/>
<path style="fill:#F3705A;" d="M293.333,133.333c0,0-67.2-50.133-94.933-50.133s-12.8,22.4-12.8,50.133s-14.933,50.133,12.8,50.133
	S293.333,133.333,293.333,133.333z"/>
<path style="fill:#F05540;" d="M198.4,183.467c-11.733,0-16-4.267-16-10.667c-1.067-10.667,5.333-21.333,16-25.6
	c25.6-10.667,59.733-13.867,96-13.867l0,0C293.333,133.333,226.133,183.467,198.4,183.467z"/>
<path style="fill:#E8EAE9;" d="M298.667,153.6c-10.667,6.4-23.467,6.4-34.133,0c0-13.867,0-26.667,0-40.533
	c10.667-6.4,23.467-6.4,34.133,0C298.667,126.933,298.667,139.733,298.667,153.6z"/>
<g>
</g>
<g>
</g>
<g>
</g>
<g>
</g>
<g>
</g>
<g>
</g>
<g>
</g>
<g>
</g>
<g>
</g>
<g>
</g>
<g>
</g>
<g>
</g>
<g>
</g>
<g>
</g>
<g>
</g>
</svg>
