<svg id="Capa_1" enable-background="new 0 0 512 512" height="512" viewBox="0 0 512 512" width="512" xmlns="http://www.w3.org/2000/svg"><g><path d="m432.791 324.115c-.605-4.098-4.417-6.928-8.514-6.326-4.098.604-6.93 4.416-6.326 8.514.921 6.25 1.379 12.66 1.359 19.05-.107 30.288-11.096 58.107-29.285 79.834l-139.349-139.35c.572-.604 1.119-1.229 1.615-1.897 9.163-12.339 10.569-29.801 3.5-43.449-7.934-15.33-26.521-26.958-51.706-25.572-.007-9.95-8.753-19.809-12.581-23.637-3.829-3.828-13.687-12.596-23.638-12.604.252-4.65.089-9.114-.517-13.461-2.365-17.037-11.73-31.325-25.05-38.218-15.776-8.173-35.395-4.32-45.347 5.105l-36.312-36.313c22.593-18.798 50.767-29.032 80.52-29.032h.112c32.545.028 63.504 12.56 87.174 35.288 23.674 22.73 37.441 53.15 38.768 85.657.077 1.884.113 3.792.106 5.671-.023 6.721 2.589 13.053 7.355 17.83 4.865 4.875 11.35 7.571 18.329 7.545h.146c50.116 0 95.497 29.667 115.615 75.581 1.661 3.795 6.085 5.524 9.879 3.86 3.794-1.663 5.522-6.085 3.859-9.879-22.507-51.37-73.281-84.562-129.354-84.562h-.229c-5.827 0-10.623-4.571-10.603-10.323.007-2.1-.033-4.23-.118-6.334-1.485-36.395-16.887-70.441-43.367-95.866-26.474-25.419-61.117-39.436-97.549-39.467-.044 0-.082 0-.126 0-37.683 0-73.115 14.667-99.774 41.304-26.686 26.665-41.383 62.128-41.383 99.855v116.725c0 4.142 3.357 7.5 7.5 7.5s7.5-3.358 7.5-7.5v-116.725c0-15.912 2.928-31.372 8.525-45.769l29.191 29.19c-9.534 10.061-13.22 29.71-5.106 45.345 6.901 13.334 21.191 22.699 38.222 25.051 4.395.609 8.668.74 12.996.534.009.215.012.43.027.644.678 9.488 10.305 22.002 20.836 29.516v107.532h-23.293c-10.035 0-18.199 8.164-18.199 18.199v67.906h-37.659c-14.083 0-25.54-11.457-25.54-25.54v-100.88c0-4.142-3.357-7.5-7.5-7.5s-7.5 3.358-7.5 7.5v100.88c0 22.354 18.187 40.54 40.54 40.54h37.658v3.96c0 10.035 8.164 18.199 18.199 18.199h61.589c10.035 0 18.199-8.164 18.199-18.199v-3.96h115.515c22.692 0 44.173-5.301 63.255-14.703.07-.034.14-.066.208-.102 15.111-7.476 28.708-17.529 40.196-29.576.098-.089.2-.172.295-.266.212-.212.405-.437.586-.667 23.497-25.086 37.941-58.592 38.07-95.354.022-7.136-.49-14.297-1.519-21.284zm-79.735 131.352-139.298-139.298c1.39-6.106 1.629-13.552.678-22.344 8.791.952 16.235.715 22.339-.675l142.956 142.957c-7.98 7.534-16.945 14.055-26.675 19.36zm-110.585-208.079c4.422 8.538 3.509 19.891-2.224 27.61-2.759 3.719-12.97 6.341-33.344 2.547-2.43-.454-4.928.322-6.676 2.069-1.748 1.748-2.522 4.245-2.07 6.675 3.79 20.378 1.17 30.587-2.548 33.347-7.723 5.733-19.074 6.647-27.612 2.221-8.874-4.594-15.427-14.925-17.098-26.958-.634-4.582-.65-9.36-.065-14.497 8.726-3.987 16.813-10.47 21.929-15.069 10.692-9.612 21.563-22.699 27.269-34.99 21.972-2.795 36.815 6.179 42.439 17.045zm-192.792-141.344 39.955 39.955c-1.393 6.109-1.631 13.555-.676 22.346-8.791-.954-16.237-.716-22.346.678l-36.354-36.353c5.222-9.581 11.721-18.529 19.421-26.626zm38.208 125.834c-12.031-1.662-22.36-8.209-26.96-17.094-4.425-8.528-3.513-19.881 2.213-27.602 2.771-3.729 12.988-6.356 33.354-2.552 5.159.965 9.721-3.557 8.749-8.75-3.805-20.365-1.176-30.582 2.549-33.351 7.714-5.726 19.067-6.637 27.611-2.211 8.869 4.591 15.417 14.921 17.089 26.964.675 4.843.652 9.94-.049 15.469-12.292 5.706-25.38 16.578-34.992 27.271-4.599 5.115-11.084 13.2-15.07 21.925-5.146.583-9.923.566-14.494-.069zm40.719-11.827c9.83-10.935 28.432-25.998 39.189-26.373 6.32-.205 21.529 15.123 21.314 21.313-.388 11.052-15.788 29.674-26.372 39.188-12.704 11.421-22.349 15.105-26.796 14.791-6.721-.481-21.639-15.347-22.124-22.124-.317-4.42 3.366-14.089 14.789-26.795zm32.58 269.978c0 1.764-1.436 3.199-3.199 3.199h-61.589c-1.764 0-3.199-1.435-3.199-3.199v-11.421c0-.013.002-.026.002-.039s-.002-.026-.002-.039v-75.367c0-1.764 1.436-3.199 3.199-3.199h61.589c1.764 0 3.199 1.435 3.199 3.199zm15-18.96v-67.906c0-10.035-8.164-18.199-18.199-18.199h-23.296v-101.053c.059.005.12.016.179.02.214.015.431.014.646.023-.215 4.496-.049 8.849.525 13.007 2.366 17.033 11.735 31.321 25.057 38.217 5.797 3.005 12.282 4.48 18.772 4.48 10.826-.001 20.99-4.304 26.575-9.589l132.152 132.152c-14.53 5.706-30.353 8.848-46.895 8.848z"/><path d="m376.603 96.073c-.757.694-1.486 1.419-2.184 2.171-.698-.752-1.428-1.478-2.184-2.171-14.767-13.555-37.525-13.047-51.813 1.15-8.67 8.617-12.965 20.65-11.784 33.016 1.257 13.161 8.196 25.328 22.5 39.45 13.299 13.131 23.817 19.556 31.497 24.248 7.265 4.44 16.299 4.442 23.566 0 7.68-4.692 18.197-11.117 31.497-24.248 14.304-14.123 21.243-26.29 22.5-39.45 1.181-12.364-3.114-24.397-11.785-33.015-14.285-14.201-37.045-14.705-51.81-1.151zm48.665 32.739c-.899 9.411-6.483 18.726-18.107 30.203-12.063 11.91-21.331 17.572-28.778 22.121-2.445 1.493-5.482 1.494-7.926 0-7.447-4.549-16.716-10.211-28.778-22.121-11.624-11.476-17.208-20.791-18.107-30.202-.752-7.876 1.955-15.512 7.427-20.95 4.36-4.334 10.188-6.518 16.003-6.518 6.808 0 13.259 2.94 17.658 8.548 2.373 3.024 5.931 4.758 9.762 4.758s7.389-1.735 9.759-4.758c8.577-10.928 24.499-11.136 33.662-2.031 5.47 5.438 8.177 13.075 7.425 20.95z"/><path d="m502.608 12.432c-11.258-11.187-29.196-11.586-40.84-.899-.087.081-.175.162-.262.243-.087-.083-.175-.164-.263-.245-11.642-10.684-29.581-10.289-40.837.901-6.799 6.756-10.168 16.186-9.242 25.872.972 10.174 6.254 19.498 17.125 30.231 9.946 9.819 17.791 14.611 23.519 18.109 2.991 1.828 6.345 2.742 9.699 2.742s6.707-.914 9.698-2.742c5.73-3.501 13.579-8.295 23.519-18.109 10.871-10.734 16.153-20.058 17.125-30.231.925-9.685-2.443-19.115-9.241-25.872zm-5.69 24.446c-.614 6.424-4.541 12.896-12.732 20.983-8.703 8.594-15.41 12.691-20.8 15.983-1.159.708-2.599.707-3.758 0-5.386-3.29-12.09-7.385-20.799-15.983-8.191-8.087-12.118-14.558-12.732-20.983-.496-5.196 1.283-10.229 4.884-13.806 2.825-2.808 6.601-4.224 10.366-4.224 3.521 0 7.035 1.238 9.753 3.733.608.558 1.169 1.164 1.67 1.802 2.123 2.705 5.308 4.257 8.738 4.257s6.614-1.552 8.738-4.258c.5-.636 1.061-1.242 1.667-1.799 5.628-5.164 14.653-4.945 20.121.489 3.6 3.577 5.38 8.61 4.884 13.806z"/></g></svg>